<svg xmlns="http://www.w3.org/2000/svg" xmlns:xlink="http://www.w3.org/1999/xlink" viewBox="0 0 792 792"><defs><style>.cls-1{fill:url(#linear-gradient);}.cls-2{fill:url(#linear-gradient-2);}.cls-3{fill:url(#linear-gradient-3);}.cls-4{fill:url(#linear-gradient-4);}.cls-5{fill:#e2e2e2;}</style><linearGradient id="linear-gradient" x1="396" y1="792" x2="396" gradientUnits="userSpaceOnUse"><stop offset="0" stop-color="#141414"/><stop offset="1" stop-color="#1b1b1b"/></linearGradient><linearGradient id="linear-gradient-2" x1="396" y1="424.29" x2="396" y2="252.57" gradientUnits="userSpaceOnUse"><stop offset="0" stop-color="#cb2d3e"/><stop offset="1" stop-color="#ef473a"/></linearGradient><linearGradient id="linear-gradient-3" x1="286.02" y1="435.6" x2="286.02" y2="228.01" xlink:href="#linear-gradient-2"/><linearGradient id="linear-gradient-4" x1="505.98" y1="435.6" x2="505.98" y2="228.01" xlink:href="#linear-gradient-2"/></defs><g id="Layer_2" data-name="Layer 2"><g id="Layer_1-2" data-name="Layer 1"><rect class="cls-1" width="792" height="792"/><polygon class="cls-2" points="471.53 338.43 396 424.29 320.47 338.43 396 252.57 471.53 338.43"/><polygon class="cls-3" points="377.33 435.6 254.61 435.6 194.72 228.01 377.33 435.6"/><polygon class="cls-4" points="597.28 228.01 537.39 435.6 414.67 435.6 597.28 228.01"/><path class="cls-5" d="M256.19,494.39H231.44V520H218.55V457.39h40.74v10.45H231.44V484h24.75Z"/><path class="cls-5" d="M287.58,509.6H315V520H274.68V457.39h12.9Z"/><path class="cls-5" d="M366.39,507.07h-22.6L339.5,520H325.79l23.29-62.57H361L384.44,520H370.73Zm-19.12-10.45h15.64l-7.86-23.41Z"/><path class="cls-5" d="M449.08,520H436.19l-25.1-41.17V520H398.2V457.39h12.89l25.14,41.25V457.39h12.85Z"/><path class="cls-5" d="M517.76,512.05a22.34,22.34,0,0,1-9.84,6.47,41.29,41.29,0,0,1-14.1,2.3,27.94,27.94,0,0,1-14.24-3.55A23.61,23.61,0,0,1,470.13,507a36.26,36.26,0,0,1-3.42-15.86v-4.25a38.41,38.41,0,0,1,3.16-16.22A23.3,23.3,0,0,1,479,460.17a26.21,26.21,0,0,1,13.94-3.63q11.13,0,17.4,5.3t7.44,15.45H505.21q-.85-5.37-3.8-7.86c-2-1.67-4.66-2.5-8.1-2.5q-6.58,0-10,4.95t-3.48,14.69v4q0,9.84,3.73,14.86t11,5q7.26,0,10.36-3.09V496.58H493.14v-9.49h24.62Z"/><path class="cls-5" d="M573.76,492.84H549V509.6h29V520H536.12V457.39H578v10.45H549v14.91h24.75Z"/><path class="cls-5" d="M303.38,551.46H291.19v10.63h14V564H289V537.89h16.13v1.86H291.19v9.85h12.19Z"/><path class="cls-5" d="M314.68,544.58l.08,3.32a7.49,7.49,0,0,1,2.72-2.73,7,7,0,0,1,3.6-.94,5.8,5.8,0,0,1,4.63,1.75,7.89,7.89,0,0,1,1.54,5.27V564h-2.13V551.23a5.93,5.93,0,0,0-1.1-3.87,4.3,4.3,0,0,0-3.46-1.27,5.41,5.41,0,0,0-3.52,1.24,7.31,7.31,0,0,0-2.27,3.36V564h-2.13V544.58Z"/><path class="cls-5" d="M335.23,554.09a11.66,11.66,0,0,1,2-7.2,6.48,6.48,0,0,1,5.47-2.66,6.72,6.72,0,0,1,6,3.15l.11-2.8h2v19a8.2,8.2,0,0,1-2.1,5.93,7.47,7.47,0,0,1-5.67,2.18,8.65,8.65,0,0,1-3.86-.9,7.49,7.49,0,0,1-2.89-2.41l1.2-1.29a6.78,6.78,0,0,0,5.4,2.8,5.49,5.49,0,0,0,4.19-1.59,6.25,6.25,0,0,0,1.56-4.39v-2.44a6.92,6.92,0,0,1-6,2.87,6.46,6.46,0,0,1-5.4-2.69,11.71,11.71,0,0,1-2-7.25Zm2.16.38a10.08,10.08,0,0,0,1.49,5.84,4.79,4.79,0,0,0,4.19,2.14,5.72,5.72,0,0,0,5.6-3.54v-9a6.12,6.12,0,0,0-2.17-2.84,5.82,5.82,0,0,0-3.4-1,4.86,4.86,0,0,0-4.2,2.12Q337.39,550.33,337.39,554.47Z"/><path class="cls-5" d="M359.6,539a1.44,1.44,0,0,1,.39-1,1.4,1.4,0,0,1,1.08-.42,1.43,1.43,0,0,1,1.08.42,1.41,1.41,0,0,1,.4,1,1.37,1.37,0,0,1-.4,1,1.42,1.42,0,0,1-1.08.41A1.37,1.37,0,0,1,359.6,539Zm2.52,25H360V544.58h2.15Z"/><path class="cls-5" d="M373.28,544.58l.07,3.32a7.59,7.59,0,0,1,2.73-2.73,7,7,0,0,1,3.59-.94,5.8,5.8,0,0,1,4.64,1.75,7.89,7.89,0,0,1,1.54,5.27V564h-2.13V551.23a5.93,5.93,0,0,0-1.1-3.87,4.31,4.31,0,0,0-3.47-1.27,5.4,5.4,0,0,0-3.51,1.24,7.31,7.31,0,0,0-2.27,3.36V564h-2.13V544.58Z"/><path class="cls-5" d="M402.18,564.32a8.42,8.42,0,0,1-4.46-1.22,8.29,8.29,0,0,1-3.11-3.39,10.62,10.62,0,0,1-1.11-4.88v-.77a11.39,11.39,0,0,1,1.08-5,8.61,8.61,0,0,1,3-3.52,7.4,7.4,0,0,1,4.19-1.28,7,7,0,0,1,5.6,2.4,9.82,9.82,0,0,1,2.06,6.58v1.2H395.63v.42a8.1,8.1,0,0,0,1.89,5.48,6,6,0,0,0,4.75,2.2,7,7,0,0,0,3-.63,6.84,6.84,0,0,0,2.39-2l1.34,1A7.81,7.81,0,0,1,402.18,564.32Zm-.39-18.27a5.32,5.32,0,0,0-4.07,1.78,8.13,8.13,0,0,0-2,4.76h11.62v-.23a7.11,7.11,0,0,0-1.59-4.55A4.94,4.94,0,0,0,401.79,546.05Z"/><path class="cls-5" d="M424.43,564.32A8.43,8.43,0,0,1,420,563.1a8.29,8.29,0,0,1-3.11-3.39,10.62,10.62,0,0,1-1.11-4.88v-.77a11.26,11.26,0,0,1,1.09-5,8.51,8.51,0,0,1,3-3.52,7.4,7.4,0,0,1,4.19-1.28,7,7,0,0,1,5.6,2.4,9.77,9.77,0,0,1,2.07,6.58v1.2H417.87v.42a8.1,8.1,0,0,0,1.89,5.48,6,6,0,0,0,4.76,2.2,7,7,0,0,0,3-.63,6.84,6.84,0,0,0,2.39-2l1.34,1A7.8,7.8,0,0,1,424.43,564.32Zm-.4-18.27a5.32,5.32,0,0,0-4.07,1.78,8.12,8.12,0,0,0-2,4.76h11.61v-.23a7.11,7.11,0,0,0-1.59-4.55A4.93,4.93,0,0,0,424,546.05Z"/><path class="cls-5" d="M448.12,546.41a8.34,8.34,0,0,0-1.45-.12,5.19,5.19,0,0,0-3.39,1.12,6,6,0,0,0-2,3.24V564h-2.13V544.58h2.09l0,3.09a5.68,5.68,0,0,1,5.46-3.44,3.43,3.43,0,0,1,1.41.23Z"/><path class="cls-5" d="M454.68,539a1.44,1.44,0,0,1,.39-1,1.4,1.4,0,0,1,1.08-.42,1.43,1.43,0,0,1,1.08.42,1.41,1.41,0,0,1,.4,1,1.37,1.37,0,0,1-.4,1,1.42,1.42,0,0,1-1.08.41,1.37,1.37,0,0,1-1.47-1.42Zm2.52,25h-2.15V544.58h2.15Z"/><path class="cls-5" d="M468.36,544.58l.07,3.32a7.65,7.65,0,0,1,2.72-2.73,7.06,7.06,0,0,1,3.6-.94,5.8,5.8,0,0,1,4.64,1.75,8,8,0,0,1,1.54,5.27V564H478.8V551.23a5.93,5.93,0,0,0-1.1-3.87,4.31,4.31,0,0,0-3.47-1.27,5.4,5.4,0,0,0-3.51,1.24,7.31,7.31,0,0,0-2.27,3.36V564h-2.13V544.58Z"/><path class="cls-5" d="M488.9,554.09a11.59,11.59,0,0,1,2-7.2,6.47,6.47,0,0,1,5.47-2.66,6.73,6.73,0,0,1,6,3.15l.11-2.8h2v19a8.19,8.19,0,0,1-2.09,5.93,7.49,7.49,0,0,1-5.68,2.18,8.64,8.64,0,0,1-3.85-.9,7.52,7.52,0,0,1-2.9-2.41l1.2-1.29a6.81,6.81,0,0,0,5.41,2.8,5.49,5.49,0,0,0,4.19-1.59,6.34,6.34,0,0,0,1.56-4.39v-2.44a6.92,6.92,0,0,1-6,2.87,6.47,6.47,0,0,1-5.41-2.69,11.71,11.71,0,0,1-2-7.25Zm2.17.38a10.08,10.08,0,0,0,1.48,5.84,4.8,4.8,0,0,0,4.19,2.14,5.73,5.73,0,0,0,5.61-3.54v-9a6.19,6.19,0,0,0-2.17-2.84,5.84,5.84,0,0,0-3.4-1,4.89,4.89,0,0,0-4.21,2.12Q491.07,550.33,491.07,554.47Z"/></g></g></svg>