<svg xmlns="http://www.w3.org/2000/svg" viewBox="0 0 29.24 29.25"><defs><style>.cls-1{fill:#f5fafe;}</style></defs><g id="Layer_2" data-name="Layer 2"><g id="ELEMENTS"><path class="cls-1" d="M17.39,14.79a2.71,2.71,0,1,1-2.7-2.7A2.7,2.7,0,0,1,17.39,14.79Z"/><path class="cls-1" d="M18,7.67H11.19A3.53,3.53,0,0,0,7.66,11.2v6.85a3.53,3.53,0,0,0,3.53,3.53H18a3.54,3.54,0,0,0,3.54-3.53V11.2A3.54,3.54,0,0,0,18,7.67ZM14.69,18.85a4.23,4.23,0,1,1,4.22-4.23A4.23,4.23,0,0,1,14.69,18.85Zm4.47-7.73a1,1,0,1,1,1-1A1,1,0,0,1,19.16,11.12Z"/><path class="cls-1" d="M14.62,0A14.63,14.63,0,1,0,29.24,14.62,14.62,14.62,0,0,0,14.62,0Zm8.57,18A5.16,5.16,0,0,1,18,23.18H11.19A5.15,5.15,0,0,1,6.05,18V11.18A5.15,5.15,0,0,1,11.19,6H18a5.16,5.16,0,0,1,5.15,5.15Z"/></g></g></svg>