<svg xmlns="http://www.w3.org/2000/svg" viewBox="0 0 96 93.6"><defs><style>.cls-1{fill:#3df0f0;}.cls-2{fill:#022326;}.cls-3{fill:#fff;}.cls-4{opacity:0.15;}</style></defs><g id="Layer_2" data-name="Layer 2"><g id="Layer_1-2" data-name="Layer 1"><path class="cls-1" d="M17.6,0H78.4A17.63,17.63,0,0,1,96,17.6V76A17.63,17.63,0,0,1,78.4,93.6H17.6A17.63,17.63,0,0,1,0,76V17.6A17.63,17.63,0,0,1,17.6,0Z"/><path class="cls-2" d="M18.4,4H77.6A14.34,14.34,0,0,1,92,18.4V75.2A14.34,14.34,0,0,1,77.6,89.6H18.4A14.34,14.34,0,0,1,4,75.2V18.4A14.34,14.34,0,0,1,18.4,4Z"/><path class="cls-3" d="M56.2,40.2c0-.5,0-1.6-.2-3.9,0-.2.1-.5.3-.5A41.26,41.26,0,0,1,71,33c.3,0,.5.1.5.4v5.8c0,.3-.1.4-.5.4-2.5-.1-6.2.2-7.6.8V65.6c0,.3-.1.5-.5.5H56.7c-.3,0-.5-.1-.5-.5V40.2ZM26.6,66.1c-.5,0-.6-.2-.6-.6v-43c0-.3.1-.5.5-.5h6.3c.3,0,.4.1.4.5v37H49.7c.3,0,.4.1.4.5l-1,5.7a.56.56,0,0,1-.6.5H26.6Z"/><g class="cls-4"><path class="cls-1" d="M56.2,40.2c0-.5,0-1.6-.2-3.9,0-.2.1-.5.3-.5A41.26,41.26,0,0,1,71,33c.3,0,.5.1.5.4v5.8c0,.3-.1.4-.5.4-2.5-.1-6.2.2-7.6.8V65.6c0,.3-.1.5-.5.5H56.7c-.3,0-.5-.1-.5-.5V40.2ZM26.6,66.1c-.5,0-.6-.2-.6-.6v-43c0-.3.1-.5.5-.5h6.3c.3,0,.4.1.4.5v37H49.7c.3,0,.4.1.4.5l-1,5.7a.56.56,0,0,1-.6.5H26.6Z"/></g></g></g></svg>