<svg xmlns="http://www.w3.org/2000/svg" viewBox="0 0 96 93.6"><defs><style>.cls-1{fill:#00c8ff;}.cls-2{fill:#001d26;}.cls-3{fill:#fff;}.cls-4{opacity:0.15;}</style></defs><g id="Layer_2" data-name="Layer 2"><g id="Layer_1-2" data-name="Layer 1"><rect class="cls-1" width="96" height="93.6" rx="17.6"/><rect class="cls-2" x="4" y="4" width="88" height="85.6" rx="14.4"/><path class="cls-3" d="M23.68,22.72c0-.32.64-.48,1-.48,2.56-.16,6.4-.16,10.24-.16,11,0,15.36,6.08,15.36,13.92,0,10.24-7.36,14.56-16.48,14.56h-3V65.92a.42.42,0,0,1-.35.48H24a.42.42,0,0,1-.48-.35.29.29,0,0,1,0-.13Zm7,21.28h3.2C38.56,44,43,42.4,43,36c0-5.12-3.2-7.68-8.48-7.68a24.63,24.63,0,0,0-3.84.16Zm34.4-4.8c-3.2,0-4.16,1.6-4.16,2.88s.8,2.4,5,4.64c6.24,3,8.32,5.92,8.32,10.24,0,6.4-4.8,9.92-11.52,9.92a17,17,0,0,1-8.32-1.76c-.32-.16-.32-.32-.32-.64V58.56c0-.32.16-.48.48-.32a14.23,14.23,0,0,0,8,2.4c3.2,0,4.48-1.28,4.48-3,0-1.44-1-2.72-5-4.8-5.6-2.72-8-5.44-8-10.08,0-5.12,4-9.44,11-9.44a18.77,18.77,0,0,1,7.2,1.12.57.57,0,0,1,.34.74.14.14,0,0,1,0,.06v5.44c0,.32-.16.48-.64.32a14.71,14.71,0,0,0-6.8-1.8Z"/><g class="cls-4"><path class="cls-1" d="M23.68,22.72c0-.32.64-.48,1-.48,2.56-.16,6.4-.16,10.24-.16,11,0,15.36,6.08,15.36,13.92,0,10.24-7.36,14.56-16.48,14.56h-3V65.92a.42.42,0,0,1-.35.48H24a.42.42,0,0,1-.48-.35.29.29,0,0,1,0-.13Zm7,21.28h3.2C38.56,44,43,42.4,43,36c0-5.12-3.2-7.68-8.48-7.68a24.63,24.63,0,0,0-3.84.16Zm34.4-4.8c-3.2,0-4.16,1.6-4.16,2.88s.8,2.4,5,4.64c6.24,3,8.32,5.92,8.32,10.24,0,6.4-4.8,9.92-11.52,9.92a17,17,0,0,1-8.32-1.76c-.32-.16-.32-.32-.32-.64V58.56c0-.32.16-.48.48-.32a14.23,14.23,0,0,0,8,2.4c3.2,0,4.48-1.28,4.48-3,0-1.44-1-2.72-5-4.8-5.6-2.72-8-5.44-8-10.08,0-5.12,4-9.44,11-9.44a18.77,18.77,0,0,1,7.2,1.12.57.57,0,0,1,.34.74.14.14,0,0,1,0,.06v5.44c0,.32-.16.48-.64.32a14.71,14.71,0,0,0-6.8-1.8Z"/></g></g></g></svg>