<svg xmlns="http://www.w3.org/2000/svg" viewBox="0 0 29.25 29.24"><defs><style>.cls-1{fill:#f5fafe;}</style></defs><g id="Layer_2" data-name="Layer 2"><g id="ELEMENTS"><path class="cls-1" d="M14.63,0A14.62,14.62,0,1,0,29.25,14.62,14.63,14.63,0,0,0,14.63,0Zm5.28,17.14c-1.82,2.25-4.76,2.4-6.12,1-.1-.11-.19-.23-.29-.36,0,.05,0,.1,0,.14-.65,2.55-.72,3.12-1.39,4.3A12.56,12.56,0,0,1,11,23.85c0,.06-.09.14-.18.12s-.1-.11-.11-.19a13.08,13.08,0,0,1-.14-2.34c0-1,.16-1.37,1.47-6.9a.37.37,0,0,0,0-.23,3.9,3.9,0,0,1-.1-2.59c.59-1.88,2.73-2,3.11-.47.23,1-.38,2.22-.85,4.08-.39,1.54,1.42,2.63,3,1.51s2-3.51,1.87-5.27c-.2-3.5-4.05-4.26-6.48-3.13-2.8,1.29-3.43,4.75-2.17,6.34.16.2.28.32.23.53s-.15.63-.24,1a.34.34,0,0,1-.5.22,2.88,2.88,0,0,1-1.17-.87,5.54,5.54,0,0,1,0-6.18,7.43,7.43,0,0,1,7.16-3.15,6.06,6.06,0,0,1,5.57,5A8.34,8.34,0,0,1,19.91,17.14Z"/></g></g></svg>