<svg xmlns="http://www.w3.org/2000/svg" viewBox="0 0 1050.23 1050.23"><defs><style>.cls-1{fill:#fff;opacity:0;}.cls-2{fill:#db2c3a;}</style></defs><g id="Layer_2" data-name="Layer 2"><g id="Layer_1-2" data-name="Layer 1"><rect class="cls-1" width="1050.23" height="1050.23"/><path class="cls-2" d="M154.24,334.84c1.12.34,1.54-.24,1.58-1.24.17-5,3.6-7.65,7.12-10.33s8.16-3,12.22-4.5c.64-.24,1.55-.13,2-.55,4.88-5,10.49-4.44,16.16-1.93a20.13,20.13,0,0,0,6,1.71,8.61,8.61,0,0,1,5.52,2.57c3.52,3.68,8.11,5,12.92,5.75a9.54,9.54,0,0,1,7.07,4.3c2.07,3.17,4.32,6.22,6.45,9.36a4.56,4.56,0,0,1,1,2.25c.05,7,4.06,14-.15,21-.64,1.08.22,3.15.58,4.72,1.12,4.82,2.82,9.53,2.35,14.62-.06.69.84,1.42,1.06,2.19.33,1.2.45,2.45.74,4.13l1.11.32c1.16,2.24,2.21,4.1,3.09,6a8,8,0,0,1,.3,2.38c.36,3.12,0,6.44,2.85,8.81.42.35.3,1.56.17,2.33a6.47,6.47,0,0,0,1.84,5.91c2.65,2.9,2.68,6.88,2.94,10.52.18,2.54-1.08,4.62,1.1,6.41.34.28.85.45,1,1-1,1-.55,1.2-1,1.37-.73,1.67,1.92,7.59,4.51,9.76-2.29,2.63-.58,5.68.56,7.66,2.17,3.73,1.91,7.61,2.37,11.42l2.84,1.22c-.73,1.36-2.23,2.54-.32,3.95.32.24.12,1.76-.3,2.35-1.08,1.49-1.15,2.47.47,3.68a4.36,4.36,0,0,1,1.48,3,12.27,12.27,0,0,0,1.95,6.58,10.23,10.23,0,0,1,1.72,5.86c-.31,3.93,1.31,7.47,1.68,11.24.16,1.66,2.65,2.82,1.55,5,3.14,3.35,1.06,7.88,2.63,11.63s2.89,7.39,4.05,11.18c.71,2.34.78,4.86,1.38,7.24,1.82,7.16,3.44,14.39,5.74,21.39,1.84,5.63,3.2,11.38,5,17,2.14,6.85,4.64,13.61,6.32,20.57a81.36,81.36,0,0,0,3.63,11c2.86,7.13,4.36,14.69,7.26,21.77.72,1.75,2.09,3.24,3.44,5.28-1.33,5.19,3.41,8.89,5.51,13.71,2.33-8.21,4.71-16.4,7-24.62s4.6-16.67,6.76-25,5.81-15.94,8.3-24.07,5.53-16.25,8.3-24.28c.26-.94.26-.94,1.26-1.94l.51-1c1.41-4.05,2.56-8.11,4.23-11.93s3.72-7.39,4.72-11.54,2.82-8,4.31-12.11c1.16-3.4,5.16-6.4,2.16-1.4-1.39-1-1,0-.3-2,2.13-4.91,4.17-9.79,6.36-14.61,2.1-4.61,4.35-9.15,6.53-13.72a4.75,4.75,0,0,1,.34-.76c6.62-9.35,9.63-20.58,15.87-30.14a230.33,230.33,0,0,0,12.72-21.28,189.67,189.67,0,0,1,10.44-17.83c5.17-7.89,10.44-15.71,15.58-23.61,4.93-7.57,9.58-15.32,14.65-22.79,5.49-8.1,11.32-16,17-23.93,1.64-2.3,3.22-4.65,4.82-7,.31-.45.5-1.24.89-1.36,3.52-1,3.77-4.71,5.71-7s3.33-5.37,5.18-7.92c3.72-5.13,7.61-10.13,11.41-15.2,3.23-4.3,6.38-8.67,9.67-12.92,6.12-7.92,12.33-15.76,18.49-23.65,1.26-1.61,2.41-3.29,3.69-4.88,5.79-7.12,11.52-14.31,17.45-21.31,7.67-9.07,15.72-17.83,23.22-27a127.73,127.73,0,0,1,13.39-14.12c3.27-3,6.11-6.37,9.2-9.54,6-6.15,11.95-12.33,18-18.38,3.24-3.22,6.79-6.11,10.07-9.28s6.29-6.19,9.12-9.55a7.47,7.47,0,0,1,3.43-2.72,7.71,7.71,0,0,0,2.49-1.45c4.28-3.68,8.48-7.46,12.77-11.13,3.46-3,7-5.83,10.49-8.72q7.35-6.06,14.74-12.06c2.14-1.74,4.56-3.17,6.51-5.09,3.62-3.57,7-7.36,10.46-11.13,1.55-1.71,2.71-3.85,4.45-5.31a57.61,57.61,0,0,1,7.2-4.67c.56-.34,1.64-.22,1.88-.64,2.41-4.3,7.33-5.68,10.45-9.17,3.5-3.92,8-6.55,12.49-9.21,1.61-1,3.2-1.45,5.08-.42a3.07,3.07,0,0,0,2.59-.17c2.7-1.62,5.28-3.45,7.9-5.2,4.23-2.83,8.49-5.62,12.68-8.51,5.33-3.68,10.61-7.45,15.9-11.17.46-.32,1.06-.55,1.33-1,2.57-4.1,6.79-6.42,10.25-9.54a33.43,33.43,0,0,1,3.88-2.93c5.49-3.66,11-7.24,16.51-10.93,1.41-1,2.57-1.74,4.5-1.13,3,.94,5.64-.41,8.24-1.87,6-3.36,11.92-6.8,18.06-9.82a89.68,89.68,0,0,1,12-4.5c2.73-.9,3.58-.28,4.77,2.28.63,1.33,1.5,2.54,2.4,4C842.66,8,840.8,9,840,10.53c-1.76,3.3-4.82,5.8-5.73,9.6a4.34,4.34,0,0,1-1.44,2.34c-3.39,2.58-6.89,5-10.33,7.54a35.65,35.65,0,0,0-3.48,2.9,14.5,14.5,0,0,1-5.75,3.65c-2.13.69-5.8.92-5.45,4.95,0,.41-.79,1-1.31,1.34-1.58,1.11-3.2,2.16-5.07,3.41.24,1.24.52,2.66.84,4.32-4.09,2.89-8.19,5.65-12.15,8.6s-8,6.24-12,9.31c-1.94,1.48-4.14,2.65-6,4.25-4.25,3.71-8.37,7.58-12.49,11.44A15.7,15.7,0,0,0,758,86.49a17.34,17.34,0,0,1-2.14,3c-4.84,4.5-9.75,8.92-14.64,13.37-.31.28-.84.55-.86.86-.29,3.24-3.37,3.64-5.25,5.25-1.14,1-2.64,1.69-3.48,2.87-2.42,3.37-6.07,5.14-9.22,7.55a16.79,16.79,0,0,0-2.5,2.09c-4.11,4.65-8.13,9.39-12.26,14-3.08,3.46-6.29,6.81-9.44,10.22a1.65,1.65,0,0,0-.45.68c-1.06,5.37-5.86,7.46-9.45,10.48-4.52,3.81-9.28,7.31-12.88,12.08-.25.33-.68.62-.72,1-.63,5.09-4.37,8.14-7.51,11.59-.53.59-.86,1.37-1.34,2q-3.66,4.91-7.36,9.77-3.22,4.24-6.47,8.47c-2.41,3.12-4.74,6.3-7.29,9.3-2.93,3.46-6.28,6.54-8.36,10.69-.72,1.44-2.1,2.54-3.15,3.82a24.2,24.2,0,0,0-3,3.91,30.46,30.46,0,0,1-7.32,9.39c-1.43,1.24-2.92,2.47-3.13,4.64a3.32,3.32,0,0,1-1.17,2.15c-3.53,2.63-5,7.23-9.08,9.36a4.66,4.66,0,0,0-1.68,1.81,9.61,9.61,0,0,1-6.38,4.81c-2.5.63-4.08,2.26-5.61,4.46-3.05,4.4-6.72,8.36-10.12,12.51a25.4,25.4,0,0,0-2,2.58c-2.56,4.07-4.91,8.29-7.66,12.23-2,2.9-4.59,5.43-6.89,8.14-2,2.32-4.34,4.44-5.73,7.07-4.6,8.69-11.43,15.77-16.73,23.93-.81,1.25-1.37,2.66-2.19,3.9-1,1.57-2.2,3.05-3.36,4.53-.67.86-1.56,1.58-2.16,2.48-4.45,6.74-8.23,14.05-13.47,20.11-4.6,5.33-6.57,12-10.85,17.33-1.91,2.37-3.71,4.83-5.54,7.25a26.2,26.2,0,0,0-5.31,11,11.78,11.78,0,0,1-.82,3.15c-2.36,4.77-4.72,9.55-7.29,14.21-1.92,3.48-4.25,6.73-6.23,10.18-1.29,2.24-2.3,4.66-3.65,7.47a24.78,24.78,0,0,1-4.13,1.34c-2.56.41-3.8,2.15-4.77,4.18-1.93,4.06-3.72,8.19-5.63,12.26a6.25,6.25,0,0,1-1.65,2.35,31.49,31.49,0,0,0-11.42,16.21,9.27,9.27,0,0,1-1,1.78c-1.5,2.45-3.42,4.68-3.86,7.67a1.91,1.91,0,0,1-.4.72c-2.68,3.51-5.24,7.08-5.75,11.66,0,.37-.4.71-.64,1-2.84,4-5.7,8-8.52,12a8.57,8.57,0,0,0-.9,1.85c-1,2.58-1.88,5.18-4.16,7a4.49,4.49,0,0,0-1.37,2.49c-.69,3.77-3.36,6.49-4.95,9.77a3.91,3.91,0,0,0-.48,1.12c-.77,5.62-4.1,10.09-6.61,14.93-2.79,5.39-5.62,10.77-8.1,16.31-1.62,3.61-2.61,7.5-3.92,11.25a35,35,0,0,1-1.46,3.39c-.71,1.47-1.81,2.78-1.38,4.61a2.71,2.71,0,0,1-.15,1.64c-2.31,5.07-2.93,10.78-5.18,15.72-1.85,4.05-3.42,8.18-5.1,12.28a39.52,39.52,0,0,0-2.74,7.86c-.56,3-2.13,5.85-3.6,8.59-1,1.87-1.93,3.59-1.48,5.78a2.43,2.43,0,0,1-.07,1.63c-1.73,2.59-1.87,5.8-3.19,8.44-1.64,3.29-2.17,6.77-3.1,10.2-.43,1.57-.71,3.45-1.74,4.54-3.19,3.36-4.28,7.55-5.46,11.77-1.28,4.55-2.65,9.08-4,13.63-.42,1.45-.73,2.92-1.17,4.7-.75.26-1.73.59-2.39.83,0,1.63.33,3.11-.06,4.36a130.31,130.31,0,0,0-3.94,18.12,15.42,15.42,0,0,1-2.71,6.71,8,8,0,0,0-1.47,6.57c.21,1.54.44,3-1.09,4.11a3.18,3.18,0,0,0-1.22,2.1c-.17,3.37-1.21,6.22-4.08,8.19-.14,3.71-3.34,3.8-5.66,4.25s-3.53,1-4.8,3.1c-2,3.27-5,5.5-9.34,4.79-1.05-.17-2.28.66-3.41,1.06s-2.09,1.26-2.95,1.06a78.69,78.69,0,0,1-9.35-2.85,10.2,10.2,0,0,1-2.84-2.22c-.73-.62-1.29-1.72-2.09-1.92-2-.5-2.73-1.87-3.47-3.52a129.28,129.28,0,0,0-5.82-12.37c-3.3-5.66-4.7-12-6.75-18-.66-2-1.09-4-1.83-5.92a13.43,13.43,0,0,0-1.87-2.68c.14-.7.87-2.1.46-2.65-3.24-4.34-3.4-9.9-6-14.49-2.36-4.18-2.85-9.14-6.69-12.84-2.35-2.27-3.33-6.2-4.34-9.55s-2.13-6.47-4.64-8.52c-3.11-2.55-4.78-6.09-6.44-9.26-4.8-9.15-8.76-18.74-12.84-28.25-1.3-3-1.76-6.41-3-9.48-.77-2-2.25-3.67-3.36-5.52-.81-1.36-1.58-2.76-2.29-4.19-3.12-6.31-6.67-12.47-9.14-19-1.55-4.1-3.11-8.11-5-12.06-1.13-2.35-1.47-5.13-2.82-7.51a85.14,85.14,0,0,1-4.7-9.1c-2.09-5.06-6.94-8.88-6.79-14.94-2.42-3.77-1.44-8.49-3.68-12.42-1.73-3-2.17-6.75-3.71-9.91-2.59-5.33-5.56-10.47-8.46-15.65-1.31-2.34-4-4.61-3.92-6.85.07-2.5-.89-4.42-1.6-6.34a160.44,160.44,0,0,0-6.64-14.72c-1.72-3.5-5-6.22-4.94-10.62,0-.87-1.32-1.67-1.74-2.64-1.3-2.95-2.36-6-3.69-8.94a62,62,0,0,0-4.41-8.68,11.75,11.75,0,0,1-2.34-5.46c-.29-2.89-1.94-5.26-3.2-7.83A35.77,35.77,0,0,1,161,409.15a14.11,14.11,0,0,0-.73-4.89,11.78,11.78,0,0,1,0-9.3,13.74,13.74,0,0,0,.05-10.82,14.36,14.36,0,0,1-.49-3.2c-.12-.74,0-1.77-.46-2.18-1.89-1.75-1.44-4.16-1.41-6.12a15.39,15.39,0,0,0-.49-5c-.51-1.71,0-3.73.11-5.62,0-.54.46-1.12.35-1.6a3.63,3.63,0,0,1,1.85-4.45c1.46-.9,1.54-2.6.91-4.11-1.61-3.89-3.31-7.75-5-11.6a12.53,12.53,0,0,0-1.4-2Z"/><path class="cls-2" d="M895.57,227.47c1,3.56-1.07,5.86-3,8.45-4.75,6.35-11.23,10.6-17.56,15.05-3.61,2.53-7.24,5-10.82,7.61-6.37,4.58-12.7,9.21-19,13.83-.67.49-1.29,1-1.93,1.57-5.32,4.4-10.42,9.09-16,13.08-3,2.15-6.15,3.9-8.55,6.93-1.44,1.82-4.17,2.58-6,4.15-2,1.71-3.47,4.13-6.15,5.17a3,3,0,0,0-1.59,1.83c-.41,1.9-1.85,2.71-3.28,3.5-1.2.66-.41,2-1.73,2.88-1.63,1.11-.63,1.11-2.61,1.5-.37.07-4.15,4.55-4.94,4.63a.2.2,0,0,0-.15,0c-5.68,4.9-6.14,3.94-11.82,8.85a.39.39,0,0,0-.14.23c-.48,2.22-2,1.88-3,2.86-1.26.31,0,0-1.94,1l-.11.08c-2,1.93-2,1-3.28,2.81a20.28,20.28,0,0,1-5.74,5.21c-2.08,1.37-4.37,3-4.76,6-.25,1.94-1.4,2.8-3.59,3.25-2.74.57-3.58,2.67-6.58,2.67,0,0-2,.94-1,2-1.48,1.3-.52,1.69-2,3-.45-.63-.88,1.55-1.49.72a15.53,15.53,0,0,0-2,1.83c-.31.38-.12,1.17-.42,1.56a23.66,23.66,0,0,1-2,2.13.42.42,0,0,0,0,.6c1.52,1.48-.8,1.91-1.25,2.73a12.27,12.27,0,0,1-2.47,2.74c-2.9,2.76-5.92,5.41-8.71,8.28-1.2,1.22-3.39,1.14-3.93,3.33-.13.52-.1.21-.7,1.08-.79,1.15-.2.16-1,1l-1,.84c-3,2.78-2.21,1.6-5,4.16-.73-.28-2,2.36-3,2-1.38,1.17-2.34,1.59-4,3a12.29,12.29,0,0,1-2.87,1.94.41.41,0,0,0-.19.18,27.83,27.83,0,0,0-.91,2.78.42.42,0,0,1-.11.18c-1.22,1.27-.14,1.27-1.47,2.57-2.84,2.78-5.47,5.81-8.56,8.27-4.9,3.91-9.34,8.12-12.37,13.69a16.41,16.41,0,0,1-2.65,3.15c-1.72,1.85-4.31,2.83-4.86,5.86-.18,1-2.22,1.47-3.06,2.47-2.37,2.87-4.68,5.8-6.77,8.88-1.18,1.75-1.58,4.07-2.86,5.72-2.93,3.77-6.28,7.21-9.29,10.92a96.67,96.67,0,0,0-5.72,8c-5.47,8.44-10.59,17.13-16.42,25.31a87.67,87.67,0,0,0-7.53,12.7,9.05,9.05,0,0,0-.5,2.56.43.43,0,0,0,.48.48,7.24,7.24,0,0,0,2.5-.48c5.64-3.13,11.11-6.59,16.86-9.5,6-3,12.28-5.55,18.42-8.32,1.38-.62,2.69-1.4,4.09-1.95q9.78-3.82,19.6-7.57,11.38-4.33,22.82-8.61c3-1.1,5.91-2.26,8.93-3.17,5.83-1.74,11.77-3.15,17.56-5s11.63-4.23,17.45-6.35a13.58,13.58,0,0,1,2-.51c5.11-1.06,10.17-2.47,15.33-3.07,7.24-.83,14.32-3.16,21.79-2.17,4.09.54,8.26.39,12.38.8a28,28,0,0,1,6.4,1.54c4,1.41,8.36,2,11.81,4.79,2.26,1.79,5.15,2.14,7.64,3.71,3.35,2.13,5.55,5.24,8.5,7.64a31.54,31.54,0,0,1,6.18,7.64,20.51,20.51,0,0,1,2.51,6.48c1.6,7.19,2.79,14.65-.09,21.57-1.65,4-2.39,8.38-5.45,11.92a82.56,82.56,0,0,0-8.65,12.56c-2.07,3.53-5.32,5.52-8.42,7.77-1.65,1.2-3.83,1.84-2.61,4.69.21.5-.44,1.54-.94,2.14a49.89,49.89,0,0,1-5,5.54c-2,1.74-4.1,3.24-4.56,6.07a1,1,0,0,1-.45.68c-3.31,1.59-4.62,5.19-7.4,7.33-2.05,1.56-4,3.33-6.34,5.37a.44.44,0,0,0-.15.3c-.16,2.75-2.61,4.79-4.92,6.87-3.12,2.82-2.89,2.71-2,6.64.68,2.86,2.74,5.53,1.63,8.74-.67,1.93-1,4.07-2,5.77s-.87,3.27-.32,5.09c.88,2.89,1.74,5.86-.76,8.56-.37.4-.17,1.31-.33,2-.26,1.05-.29,2.39-1,3.06-2.69,2.67-5.57,5.14-8.4,7.66a14.24,14.24,0,0,0-2.06,1.66c-3.06,4.06-6,8.18-9,12.28-1.51,2.06-3,4.15-4.54,6.19a5.08,5.08,0,0,1-1.69,1.75c-4.75,2-7.25,6-9.34,10.39a7.77,7.77,0,0,1-2.34,2.84c-1.36,1-2.68,1.77-2.92,3.7-.07.64-1,1.27-1.62,1.73-2.78,2-6.21,3.44-8.22,6-1.65,2.11-4.34,2.64-5.65,5.23-1.18,2.34-3.73,4-5.67,6-.29.3-.5.78-.84.9-3.16,1.17-3.92,4.37-5.71,6.68-1.56,2-2.94,4.2-4.46,6.27a6.37,6.37,0,0,1-1.79,1.72c-1.94,1.14-4.48,1.71-5.79,3.32s-2,3.67-4.41,3.83a.42.42,0,0,0-.33.2c-2.41,4-7,5.43-10,8.65-4.13,4.38-7.75,9.39-12.43,13.07a31.24,31.24,0,0,0-6.34,7.15c-1.45,2.07-3.81,3.57-5.92,5.11a38.37,38.37,0,0,0-7.16,6.49c-3.22,3.84-7.61,6.51-10.72,10.5-1.08,1.39-2.22,2.73-3.38,4.05-1.79,2-4.13,3.4-6.21,5.06-5.7,4.54-10.88,9.72-16.45,14.43-2,1.71-3.48,4.53-6.79,4.4-.42,0-.89.57-1.31.93-3.48,3-5.89,7.09-9.93,9.49a.36.36,0,0,0-.14.16c-3.56,6.71-10.44,10.18-15.41,15.55-1.52,1.64-3.93,2.62-5.69,4.43-5,5.1-10.52,9.6-14.47,15.64a27.45,27.45,0,0,1-2.81,2.91c-1.69,1.9-3.44,3.76-5,5.8-2.52,3.38-4.82,6.93-7.33,10.32a10.35,10.35,0,0,1-3,2.78,47,47,0,0,1-14.37,5.74c-5.2,1-9.77,3.58-12.41,8.65a19.26,19.26,0,0,1-2.42,2.81,10.58,10.58,0,0,0-2.11,3,4.71,4.71,0,0,1-2.79,3.29c-1,.44-1.67,1.72-2.58,2.53a43.23,43.23,0,0,1-6,5,28.13,28.13,0,0,0-5.72,4.34c-2.2,2.22-4.16,4.66-6.37,6.84-3.89,3.82-7.38,8-11.21,11.84-2.71,2.69-5,6.26-9.26,7.41-1.79.49-3,2.81-4.83,3.48a20.91,20.91,0,0,0-5.93,3.12,12,12,0,0,0-3.46,4,7.32,7.32,0,0,1-2.56,2.73,18.66,18.66,0,0,1-2.12,2.41c-.53.5-.95,1-.95,1.39v1.89a.42.42,0,0,1-.06.21l-1.41,2.46-.48,0c-3.35,6.11-8.76,10.48-14,15.38a.18.18,0,0,1-.07,0l-3.7,2.26a.44.44,0,0,0-.18.2c-1.09,2.57-1.38,4-3.2,5.39-1.63,1.26-3.06,2.78-4.69,4a4,4,0,0,1-3.2.75,6.62,6.62,0,0,0-5.34,2.65c-2.93,5.18-7.47,8.77-11.46,12.91a19.84,19.84,0,0,0-2,2.93c-.88,1.35-1.76,2.71-2.61,4.08-.48.78-.94,1.58-1.36,2.39-.24.45-.29,1.28-.6,1.38-3.42,1.06-4.23,4.43-6.19,6.78a42.7,42.7,0,0,1-4.9,5.07c-4.06,3.47-8.25,6.79-12.4,10.16a3,3,0,0,1-1.44.79c-5.22.28-10.61,2.22-15.44-1.5a10.45,10.45,0,0,0-1.23-.72.45.45,0,0,0-.42,0c-2.87,1.66-5.72,3.22-8.49,4.92-2.55,1.56-5.95,2.74-7.27,5-1.76,3.1-4.87,4.85-6.4,8-.38.77-1.37,1.77-2.06,1.75-4.33-.1-5.92,3.53-7.49,6.16a32.35,32.35,0,0,1-12.06,11.4c-2.87,1.65-6.55,1.89-9.87,2.75-1.05.27-2.13.43-3.17.72a5.78,5.78,0,0,1-5.39-.91,13.66,13.66,0,0,1-5.17-11.53,1.74,1.74,0,0,1,.27-.76c3.6-5.51,6.85-11.3,11-16.41,2.61-3.24,5.27-6.67,9.08-8.92,2.06-1.22,3.57-3.35,5.42-5a29.11,29.11,0,0,1,3.34-2.36c2-1.32,4-2.3,5.11-5,.93-2.17,3.76-3.51,5.71-5.26,3-2.67,5.86-5.44,8.86-8.06,2.17-1.9,4.47-3.65,6.74-5.44,3.09-2.42,6.76-4.36,9.19-7.32,4.61-5.6,10.54-9.64,15.67-14.59,3.51-3.39,7.19-6.57,10.48-10.22,4.09-4.54,9-8.32,13.14-12.83,4.77-5.23,10.54-9.4,14.92-15.08,3.15-4.07,7.44-7.26,11.15-10.91,1.35-1.32,2.93-2.64,3.69-4.3,2.09-4.48,6.56-6.57,9.55-10.13s6.21-6.92,9.47-10.24c4.32-4.41,6.76-10.22,11.18-14.57,3.72-3.66,7.21-7.55,10.69-11.44,2.57-2.87,4.88-6,7.44-8.85,3.46-3.9,7.1-7.65,10.58-11.54,1.72-1.92,3.14-4.13,4.89-6,3.93-4.25,8-8.39,12-12.57,3.62-3.8,7.33-7.52,10.84-11.42,5.25-5.83,10.29-11.84,15.56-17.65,1.45-1.6,3.61-2.55,5-4.15,3.09-3.42,5.77-7.21,8.91-10.58,3.57-3.82,7.56-7.26,11.18-11,4.08-4.26,7.95-8.73,11.93-13.08,3.53-3.87,7-7.78,10.66-11.55,3.92-4,8.61-7.53,11.85-12.06,3-4.26,6.93-7.31,10.58-10.8,4.16-4,7.79-8.53,11.72-12.77,2.63-2.83,5.43-5.52,8.08-8.35,5-5.32,9.69-10.95,15-16,6.25-6,11.84-12.55,17.56-19,2.57-2.9,5.64-5.37,8.56-8.07a.46.46,0,0,0,.14-.35c-.22-3.7-.54-7.39-.63-11.08-.07-3,2.24-5.08,4.17-6.76,6.8-5.94,12.21-13,17.62-20.11a.44.44,0,0,1,.15-.12c3.64-1.73,3.91-6.33,7.21-8.47,1.13-.73,1.77-2.47,2.29-3.88,1-2.82,1.64-5.8,2.79-8.56a14.83,14.83,0,0,1,3-3.85c.55-.6,1.57-.85,2-1.5,2.39-4.12,5.83-7.3,9.14-10.61a58.64,58.64,0,0,1,4.61-4.71c2.48-2,3.79-4.66,5.31-7.26a1.68,1.68,0,0,0,.35-.74c0-3.19,0-6.38,0-9.89a.42.42,0,0,1,.12-.3c3-3,6.24-6.33,9.59-9.46a59.23,59.23,0,0,1,7.6-6.3,12.56,12.56,0,0,0,6.13-9.72c.21-2.25-.9-3.89-3.08-3.93-6.46-.12-11-3.29-14.35-8.61-1-1.66-2.29-3.2-3.6-5a.44.44,0,0,0-.51-.15c-8.85,3.49-18.09,5.56-26.41,10.13-2,1.12-4.2,2-6.32,2.93-3.22,1.45-6.32,3.46-9.69,4.19-3.91.85-6.33,3.46-9.34,5.52-3.55,2.43-7.8,3.8-11.6,5.89s-7.54,4.42-11.14,6.88c-4.39,3-8.6,6.25-12.88,9.41a29.84,29.84,0,0,0-2.93,2.32c-4.92,4.67-10.6,8.33-16.3,11.93-3.39,2.14-7,3.86-11.22,3.67a1.59,1.59,0,0,0-1.14.37c-2.15,2.37-4.23,4.79-6.35,7.18-.78.89-1.93,2.64-2.33,2.49-3.14-1.2-5.34,1.23-6.66,2.66-3.91,4.25-8.08,2.49-12.3,1.61a44.93,44.93,0,0,1-8.29-2.35,34,34,0,0,1-10-6.06,9.29,9.29,0,0,0-2-1.39c-2.79-1.43-4.67-3.82-6.48-6.23a6.94,6.94,0,0,1-.8-2.68c-.15-.66.06-1.5-.27-2-3-4.69-1.63-8.94,1.22-13.15a.43.43,0,0,0,.05-.38c-.66-1.94-1.67-3.89-1.9-5.93-.54-4.84,0-9.45,3.13-13.63,4.23-5.56,6.17-12.15,7.27-19,.09-.54-.07-1.32.24-1.59,3.38-3,3.58-7.13,4.78-11.07,1.06-3.5,3.78-6.8,6.51-9.41A20.33,20.33,0,0,0,574,483.48a49.38,49.38,0,0,1,2.59-8.74c2.69-6.16,5.23-12.46,8.68-18.19,4.89-8.09,10.51-15.75,15.89-23.54a10,10,0,0,1,2.54-2.13,12.42,12.42,0,0,0,4.83-6c.68-2,1.72-3.62,4.19-3.95a4.54,4.54,0,0,0,2.5-2c2.89-4,5.54-8.2,8.53-12.13a16.69,16.69,0,0,1,5.1-4.67c3.66-2,6-5.29,8.43-8.25,3.4-4.12,7.65-7.69,10.33-12.1,3.07-5.06,8-9.14,8.95-15.47a3.57,3.57,0,0,1,2.38-3.25,2.64,2.64,0,0,0,1.42-1.17c2.69-4.61,7.06-7.69,10.48-11.65,4-4.66,8.66-8.81,12.8-13.39,2.3-2.54,4.08-5.55,6.21-8.26a26.87,26.87,0,0,1,4.43-4.89c6.87-5.31,14-10.27,20.8-15.69,5.09-4.07,10.24-7.95,16.28-10.45,3.18-1.31,6.36-2.49,9.46-4.09A53.75,53.75,0,0,0,759.63,277a18.68,18.68,0,0,1,3.73-3.2c2.48-1.95,4.95-3.92,7.52-5.76a16.87,16.87,0,0,1,4.55-2.61,49.78,49.78,0,0,0,16.46-9.06c3.91-3.13,7.56-6.68,12.57-8.22.93-.28,1.68-1.34,2.38-2.15a7.82,7.82,0,0,1,6.07-2.81c4.17-.23,8.45-.82,12-3.69,5-4.09,10.07-8.17,15.28-12,7.1-5.22,14.26-10.36,21.59-15.25a122.91,122.91,0,0,1,11.9-6.47,4.72,4.72,0,0,1,2.73-.49,19.68,19.68,0,0,1,12.76,7.11c2.09,2.65,3.94,5.49,5.89,8.26a4.46,4.46,0,0,1,.65,4.32A4.39,4.39,0,0,0,895.57,227.47Z"/></g></g></svg>